<svg width="24" height="18" viewBox="0 0 24 18" fill="none" xmlns="http://www.w3.org/2000/svg">
<path d="M0.800049 9L0.103691 8.7215C0.0321681 8.9003 0.0321681 9.0997 0.103691 9.2785L0.800049 9ZM23.2001 9L23.8964 9.2785C23.9679 9.0997 23.9679 8.9003 23.8964 8.7215L23.2001 9ZM12 16.25C8.27901 16.25 5.66672 14.3974 3.95751 12.4983C3.10238 11.5481 2.48284 10.5954 2.07756 9.8802C1.87535 9.5234 1.72764 9.2277 1.63157 9.0239C1.58356 8.9221 1.54853 8.8434 1.52611 8.7916C1.5149 8.7658 1.50685 8.7467 1.50191 8.7348C1.49945 8.7289 1.49776 8.7248 1.49684 8.7225C1.49638 8.7214 1.49612 8.7207 1.49605 8.7206C1.49601 8.7205 1.49602 8.7205 1.49608 8.7206C1.49611 8.7207 1.49619 8.7209 1.49621 8.721C1.4963 8.7212 1.49641 8.7215 0.800049 9C0.103691 9.2785 0.10382 9.2789 0.103962 9.2792C0.104026 9.2794 0.104181 9.2798 0.104309 9.2801C0.104564 9.2807 0.10487 9.2815 0.105225 9.2824C0.105936 9.2841 0.106846 9.2864 0.107957 9.2891C0.110178 9.2945 0.113201 9.3019 0.117032 9.3111C0.124693 9.3295 0.135589 9.3553 0.149772 9.388C0.178131 9.4535 0.219663 9.5466 0.274778 9.6636C0.384952 9.8973 0.549746 10.2266 0.772528 10.6198C1.21725 11.4046 1.8977 12.4519 2.84257 13.5017C4.73334 15.6026 7.72104 17.75 12 17.75V16.25ZM0.800049 9C1.49641 9.2785 1.4963 9.2788 1.49621 9.279C1.49619 9.2791 1.49611 9.2793 1.49608 9.2794C1.49602 9.2795 1.49601 9.2795 1.49605 9.2794C1.49612 9.2793 1.49638 9.2786 1.49684 9.2775C1.49776 9.2752 1.49945 9.2711 1.50191 9.2652C1.50685 9.2533 1.5149 9.2342 1.52611 9.2084C1.54853 9.1566 1.58356 9.0779 1.63157 8.9761C1.72764 8.7723 1.87535 8.4766 2.07756 8.1198C2.48284 7.4046 3.10238 6.45187 3.95751 5.50172C5.66672 3.60259 8.27901 1.75 12 1.75V0.25C7.72104 0.25 4.73334 2.3974 2.84257 4.49828C1.8977 5.54813 1.21725 6.59544 0.772528 7.3802C0.549746 7.7734 0.384952 8.1027 0.274778 8.3364C0.219663 8.4533 0.178131 8.5465 0.149772 8.612C0.135589 8.6447 0.124693 8.6705 0.117032 8.6889C0.113201 8.6981 0.110178 8.7055 0.107957 8.7109C0.106846 8.7136 0.105936 8.7159 0.105225 8.7176C0.10487 8.7185 0.104564 8.7193 0.104309 8.7199C0.104181 8.7202 0.104026 8.7206 0.103962 8.7208C0.10382 8.7211 0.103691 8.7215 0.800049 9ZM12 1.75C15.721 1.75 18.3333 3.6026 20.0426 5.50172C20.8977 6.45187 21.5172 7.4046 21.9225 8.1198C22.1247 8.4766 22.2725 8.7723 22.3685 8.9761C22.4165 9.0779 22.4516 9.1566 22.474 9.2084C22.4852 9.2342 22.4933 9.2533 22.4982 9.2652C22.5007 9.2711 22.5023 9.2752 22.5033 9.2775C22.5037 9.2786 22.504 9.2793 22.5041 9.2794C22.5041 9.2795 22.5041 9.2795 22.504 9.2794C22.504 9.2793 22.5039 9.2791 22.5039 9.279C22.5038 9.2788 22.5037 9.2785 23.2001 9C23.8964 8.7215 23.8963 8.7211 23.8961 8.7208C23.8961 8.7206 23.8959 8.7202 23.8958 8.7199C23.8955 8.7193 23.8952 8.7185 23.8949 8.7176C23.8942 8.7159 23.8933 8.7136 23.8921 8.7109C23.8899 8.7055 23.8869 8.6981 23.8831 8.6889C23.8754 8.6705 23.8645 8.6447 23.8503 8.6119C23.822 8.5465 23.7804 8.4533 23.7253 8.3364C23.6151 8.1027 23.4503 7.7734 23.2276 7.3802C22.7828 6.59544 22.1024 5.54813 21.1575 4.49827C19.2667 2.3974 16.279 0.25 12 0.25V1.75ZM23.2001 9C22.5037 8.7215 22.5038 8.7212 22.5039 8.721C22.5039 8.7209 22.504 8.7207 22.504 8.7206C22.5041 8.7205 22.5041 8.7205 22.5041 8.7206C22.504 8.7207 22.5037 8.7214 22.5033 8.7225C22.5023 8.7248 22.5007 8.7289 22.4982 8.7348C22.4933 8.7467 22.4852 8.7658 22.474 8.7916C22.4516 8.8434 22.4165 8.9221 22.3685 9.0239C22.2725 9.2277 22.1247 9.5234 21.9225 9.8802C21.5172 10.5954 20.8977 11.5481 20.0426 12.4983C18.3333 14.3974 15.721 16.25 12 16.25V17.75C16.279 17.75 19.2667 15.6026 21.1575 13.5017C22.1024 12.4519 22.7828 11.4046 23.2276 10.6198C23.4503 10.2266 23.6151 9.8973 23.7253 9.6636C23.7804 9.5467 23.822 9.4535 23.8503 9.388C23.8645 9.3553 23.8754 9.3295 23.8831 9.3111C23.8869 9.3019 23.8899 9.2945 23.8921 9.2891C23.8933 9.2864 23.8942 9.2841 23.8949 9.2824C23.8952 9.2815 23.8955 9.2807 23.8958 9.2801C23.8959 9.2798 23.8961 9.2794 23.8961 9.2792C23.8963 9.2789 23.8964 9.2785 23.2001 9ZM12 11.45C10.647 11.45 9.55005 10.3531 9.55005 9H8.05005C8.05005 11.1815 9.81853 12.95 12 12.95V11.45ZM14.4501 9C14.4501 10.3531 13.3531 11.45 12 11.45V12.95C14.1816 12.95 15.9501 11.1815 15.9501 9H14.4501ZM12 6.55C13.3531 6.55 14.4501 7.6469 14.4501 9H15.9501C15.9501 6.81847 14.1816 5.05 12 5.05V6.55ZM12 5.05C9.81853 5.05 8.05005 6.81847 8.05005 9H9.55005C9.55005 7.6469 10.647 6.55 12 6.55V5.05Z" fill="#8B8B8B"/>
</svg>
